name ./resultDataOpenSim/trcMotMarkerGrf/sub06/grf-05-08.mot
datacolumns 19
datarows 22
range 1.01200000 1.09600000
endheader

                time	     ground_force_vx	     ground_force_vy	     ground_force_vz	     ground_force_px	     ground_force_py	     ground_force_pz	   l_ground_force_vx	   l_ground_force_vy	   l_ground_force_vz	   l_ground_force_px	   l_ground_force_py	   l_ground_force_pz	     ground_torque_x	     ground_torque_y	     ground_torque_z	   l_ground_torque_x	   l_ground_torque_y	   l_ground_torque_z	
          1.01200000	          0.00000000	          0.00000000	          0.00000000	          0.00000000	          0.00000000	          0.00000000	         43.59751363	        342.37146937	         15.23536198	          0.04921251	         -0.10000000	         -0.00490880	          0.00000000	          0.00000000	          0.00000000	          0.00000000	         -0.71752626	          0.00000000	
          1.01600000	          0.00000000	          0.00000000	          0.00000000	          0.00000000	          0.00000000	          0.00000000	         45.94803481	        364.81939907	         16.61320460	          0.04971210	         -0.10000000	         -0.00470434	          0.00000000	          0.00000000	          0.00000000	          0.00000000	         -0.73908372	          0.00000000	
          1.02000000	          0.00000000	          0.00000000	          0.00000000	          0.00000000	          0.00000000	          0.00000000	         48.62363784	        388.49042340	         17.68213307	          0.05023067	         -0.10000000	         -0.00444064	          0.00000000	          0.00000000	          0.00000000	          0.00000000	         -0.77964914	          0.00000000	
          1.02400000	          0.00000000	          0.00000000	          0.00000000	          0.00000000	          0.00000000	          0.00000000	         51.69725460	        413.20582347	         18.40948110	          0.05072431	         -0.10000000	         -0.00411889	          0.00000000	          0.00000000	          0.00000000	          0.00000000	         -0.83963202	          0.00000000	
          1.02800000	          0.00000000	          0.00000000	          0.00000000	          0.00000000	          0.00000000	          0.00000000	         55.23689205	        438.73543732	         18.82047703	          0.05120722	         -0.10000000	         -0.00374134	          0.00000000	          0.00000000	          0.00000000	          0.00000000	         -0.91829445	          0.00000000	
          1.03200000	          0.00000000	          0.00000000	          0.00000000	          0.00000000	          0.00000000	          0.00000000	         59.32041113	        464.85008285	         18.97452791	          0.05174444	         -0.10000000	         -0.00331032	          0.00000000	          0.00000000	          0.00000000	          0.00000000	         -1.01376135	          0.00000000	
          1.03600000	          0.00000000	          0.00000000	          0.00000000	          0.00000000	          0.00000000	          0.00000000	         64.02747941	        491.37150880	         18.91813795	          0.05238203	         -0.10000000	         -0.00284124	          0.00000000	          0.00000000	          0.00000000	          0.00000000	         -1.12327211	          0.00000000	
          1.04000000	          0.00000000	          0.00000000	          0.00000000	          0.00000000	          0.00000000	          0.00000000	         69.40210815	        518.15413281	         18.66041313	          0.05311091	         -0.10000000	         -0.00235540	          0.00000000	          0.00000000	          0.00000000	          0.00000000	         -1.24353089	          0.00000000	
          1.04400000	          0.00000000	          0.00000000	          0.00000000	          0.00000000	          0.00000000	          0.00000000	         75.42733052	        545.00286249	         18.19764547	          0.05387846	         -0.10000000	         -0.00187371	          0.00000000	          0.00000000	          0.00000000	          0.00000000	         -1.37101042	          0.00000000	
          1.04800000	          0.00000000	          0.00000000	          0.00000000	          0.00000000	          0.00000000	          0.00000000	         82.03813833	        571.61988922	         17.54871449	          0.05462226	         -0.10000000	         -0.00140704	          0.00000000	          0.00000000	          0.00000000	          0.00000000	         -1.50222246	          0.00000000	
          1.05200000	          0.00000000	          0.00000000	          0.00000000	          0.00000000	          0.00000000	          0.00000000	         89.15796498	        597.64957562	         16.75580229	          0.05531098	         -0.10000000	         -0.00094164	          0.00000000	          0.00000000	          0.00000000	          0.00000000	         -1.63404151	          0.00000000	
          1.05600000	          0.00000000	          0.00000000	          0.00000000	          0.00000000	          0.00000000	          0.00000000	         96.72960841	        622.76281472	         15.85584059	          0.05594890	         -0.10000000	         -0.00045706	          0.00000000	          0.00000000	          0.00000000	          0.00000000	         -1.76407232	          0.00000000	
          1.06000000	          0.00000000	          0.00000000	          0.00000000	          0.00000000	          0.00000000	          0.00000000	        104.71568859	        646.67710448	         14.85791935	          0.05655247	         -0.10000000	          0.00005024	          0.00000000	          0.00000000	          0.00000000	          0.00000000	         -1.89091433	          0.00000000	
          1.06400000	          0.00000000	          0.00000000	          0.00000000	          0.00000000	          0.00000000	          0.00000000	        113.06579328	        669.08858936	         13.75020440	          0.05713543	         -0.10000000	          0.00057296	          0.00000000	          0.00000000	          0.00000000	          0.00000000	         -2.01413530	          0.00000000	
          1.06800000	          0.00000000	          0.00000000	          0.00000000	          0.00000000	          0.00000000	          0.00000000	        121.68632366	        689.60707034	         12.52398517	          0.05770298	         -0.10000000	          0.00110216	          0.00000000	          0.00000000	          0.00000000	          0.00000000	         -2.13387598	          0.00000000	
          1.07200000	          0.00000000	          0.00000000	          0.00000000	          0.00000000	          0.00000000	          0.00000000	        130.45139493	        707.78718570	         11.18626295	          0.05825177	         -0.10000000	          0.00162657	          0.00000000	          0.00000000	          0.00000000	          0.00000000	         -2.25022196	          0.00000000	
          1.07600000	          0.00000000	          0.00000000	          0.00000000	          0.00000000	          0.00000000	          0.00000000	        139.24386306	        723.21756971	          9.75140592	          0.05876844	         -0.10000000	          0.00213081	          0.00000000	          0.00000000	          0.00000000	          0.00000000	         -2.36262844	          0.00000000	
          1.08000000	          0.00000000	          0.00000000	          0.00000000	          0.00000000	          0.00000000	          0.00000000	        147.98524565	        735.58030661	          8.22495098	          0.05923545	         -0.10000000	          0.00259649	          0.00000000	          0.00000000	          0.00000000	          0.00000000	         -2.46959808	          0.00000000	
          1.08400000	          0.00000000	          0.00000000	          0.00000000	          0.00000000	          0.00000000	          0.00000000	        156.64176418	        744.66591339	          6.59727493	          0.05968237	         -0.10000000	          0.00302845	          0.00000000	          0.00000000	          0.00000000	          0.00000000	         -2.56858362	          0.00000000	
          1.08800000	          0.00000000	          0.00000000	          0.00000000	          0.00000000	          0.00000000	          0.00000000	        165.21348051	        750.36571854	          4.85370386	          0.06016275	         -0.10000000	          0.00344670	          0.00000000	          0.00000000	          0.00000000	          0.00000000	         -2.65600594	          0.00000000	
          1.09200000	          0.00000000	          0.00000000	          0.00000000	          0.00000000	          0.00000000	          0.00000000	        173.69532600	        752.62790836	          2.99815174	          0.06069431	         -0.10000000	          0.00386343	          0.00000000	          0.00000000	          0.00000000	          0.00000000	         -2.72741465	          0.00000000	
          1.09600000	          0.00000000	          0.00000000	          0.00000000	          0.00000000	          0.00000000	          0.00000000	        182.02300542	        751.37142955	          1.07220823	          0.06127171	         -0.10000000	          0.00427853	          0.00000000	          0.00000000	          0.00000000	          0.00000000	         -2.77790350	          0.00000000	
